<?xml version="1.0" standalone="no"?>
<!DOCTYPE svg PUBLIC "-//W3C//DTD SVG 20010904//EN"
 "http://www.w3.org/TR/2001/REC-SVG-20010904/DTD/svg10.dtd">
<svg version="1.0" xmlns="http://www.w3.org/2000/svg"
 width="693.000000pt" height="693.000000pt" viewBox="0 0 693.000000 693.000000"
 preserveAspectRatio="xMidYMid meet">
<metadata>
Created by potrace 1.11, written by Peter Selinger 2001-2013
</metadata>
<g transform="translate(0.000000,693.000000) scale(0.100000,-0.100000)"
fill="#000000" stroke="none">
<path d="M0 3465 l0 -3465 3465 0 3465 0 0 3465 0 3465 -3465 0 -3465 0 0
-3465z m3048 2238 l-3 -408 -237 -945 c-378 -1509 -428 -1711 -444 -1780 -8
-36 -108 -441 -222 -900 l-208 -835 -397 -3 c-218 -1 -397 0 -397 2 0 8 218
889 357 1441 74 297 143 574 153 615 26 108 181 733 394 1587 156 627 183 748
175 775 -12 42 -19 52 -46 67 -30 15 -822 16 -856 0 -39 -18 -47 -50 -47 -194
l0 -135 -390 0 -390 0 0 560 0 560 1280 0 1281 0 -3 -407z m2999 225 c93 -95
215 -220 271 -277 l102 -104 0 -279 0 -278 -380 0 -380 0 0 135 c0 149 -9 182
-55 203 -19 9 -143 12 -451 12 -464 0 -470 -1 -493 -57 -17 -44 -21 -1341 -3
-1374 30 -55 10 -54 639 -57 l582 -3 270 -276 271 -276 0 -951 0 -951 -271
-278 -271 -277 -722 0 -722 0 -277 277 -277 277 0 2075 0 2076 277 277 278
278 721 0 720 0 171 -172z"/>
<path d="M4723 3083 c-41 -8 -71 -50 -79 -111 -11 -89 5 -1288 17 -1316 6 -13
28 -31 48 -40 32 -15 84 -17 456 -14 382 3 422 5 446 21 14 9 31 29 37 43 16
35 17 1332 1 1367 -23 51 -33 52 -484 53 -231 1 -430 0 -442 -3z"/>
</g>
</svg>
